{
    "asset" : {
        "generator" : "Khronos glTF Blender I/O v1.1.45",
        "version" : "2.0"
    },
    "scene" : 0,
    "scenes" : [
        {
            "name" : "Scene",
            "nodes" : [
                0,
                1,
                2,
                3,
                4,
                5,
                6,
                7,
                8,
                9,
                10
            ]
        }
    ],
    "nodes" : [
        {
            "name" : "Light",
            "rotation" : [
                0.16907575726509094,
                0.7558803558349609,
                -0.27217137813568115,
                0.570947527885437
            ],
            "translation" : [
                4.076245307922363,
                5.903861999511719,
                -1.0054539442062378
            ]
        },
        {
            "name" : "Camera",
            "rotation" : [
                0.483536034822464,
                0.33687159419059753,
                -0.20870360732078552,
                0.7804827094078064
            ],
            "translation" : [
                7.358891487121582,
                4.958309173583984,
                6.925790786743164
            ]
        },
        {
            "mesh" : 0,
            "name" : "Cilindro",
            "rotation" : [
                -0.004414992872625589,
                -0.02501668967306614,
                -0.19828441739082336,
                0.9798152446746826
            ],
            "scale" : [
                0.022976653650403023,
                0.5511570572853088,
                0.017934147268533707
            ],
            "translation" : [
                -0.002920672297477722,
                3.7072079181671143,
                0.15289321541786194
            ]
        },
        {
            "name" : "Cilindro.004",
            "scale" : [
                1,
                1.0734813213348389,
                1
            ],
            "translation" : [
                -1.5932847261428833,
                1.928480625152588,
                3.3455958366394043
            ]
        },
        {
            "mesh" : 1,
            "name" : "Plano",
            "rotation" : [
                -0.6103407144546509,
                0,
                0,
                0.7921389937400818
            ],
            "scale" : [
                1.1124759912490845,
                1.558455228805542,
                1.1022309064865112
            ],
            "translation" : [
                -0.42633914947509766,
                1.6505777835845947,
                -1.566922903060913
            ]
        },
        {
            "mesh" : 2,
            "name" : "Cilindro.005",
            "scale" : [
                1.7040420770645142,
                1.7040420770645142,
                1.7040420770645142
            ],
            "translation" : [
                -0.06811285018920898,
                2.0738542079925537,
                0.17133428156375885
            ]
        },
        {
            "mesh" : 3,
            "name" : "Cilindro.007",
            "rotation" : [
                0.22297322750091553,
                -0.1094120442867279,
                -0.03138474002480507,
                0.9681564569473267
            ],
            "scale" : [
                0.0184297114610672,
                0.5377368927001953,
                0.024109508842229843
            ],
            "translation" : [
                -0.03669583052396774,
                3.6000897884368896,
                0.16656018793582916
            ]
        },
        {
            "mesh" : 4,
            "name" : "Cilindro.001",
            "rotation" : [
                -0.23873400688171387,
                -0.17165468633174896,
                -0.07075915485620499,
                0.9531704187393188
            ],
            "scale" : [
                0.022976653650403023,
                0.5511570572853088,
                0.017934147268533707
            ],
            "translation" : [
                -0.06320570409297943,
                3.792292594909668,
                0.14609146118164062
            ]
        },
        {
            "mesh" : 5,
            "name" : "Cilindro.002",
            "rotation" : [
                -0.025491654872894287,
                -0.18122634291648865,
                0.1312522292137146,
                0.974310040473938
            ],
            "scale" : [
                0.01842970959842205,
                0.5377368927001953,
                0.024109508842229843
            ],
            "translation" : [
                -0.03864048421382904,
                3.5701277256011963,
                0.13663236796855927
            ]
        },
        {
            "mesh" : 6,
            "name" : "Cilindro.003",
            "rotation" : [
                -0.17410965263843536,
                -0.1064942330121994,
                -0.0889306291937828,
                0.9749031662940979
            ],
            "scale" : [
                0.023429865017533302,
                0.9269809126853943,
                0.020253917202353477
            ],
            "translation" : [
                -0.027867354452610016,
                3.7530717849731445,
                0.13031412661075592
            ]
        },
        {
            "mesh" : 7,
            "name" : "Cilindro.006",
            "rotation" : [
                0.05103084072470665,
                -0.1341886669397354,
                0.09886819124221802,
                0.9846899509429932
            ],
            "scale" : [
                0.019066063687205315,
                0.9374445080757141,
                0.024523040279746056
            ],
            "translation" : [
                -0.03733967989683151,
                3.527529239654541,
                0.13037508726119995
            ]
        }
    ],
    "materials" : [
        {
            "doubleSided" : true,
            "emissiveFactor" : [
                0,
                0,
                0
            ],
            "name" : "Material.002",
            "pbrMetallicRoughness" : {
                "baseColorTexture" : {
                    "index" : 0,
                    "texCoord" : 0
                },
                "metallicFactor" : 0,
                "roughnessFactor" : 0.5
            }
        },
        {
            "doubleSided" : true,
            "emissiveFactor" : [
                0,
                0,
                0
            ],
            "name" : "Material.006",
            "pbrMetallicRoughness" : {
                "baseColorTexture" : {
                    "index" : 1,
                    "texCoord" : 0
                },
                "metallicFactor" : 0,
                "roughnessFactor" : 1
            }
        },
        {
            "doubleSided" : true,
            "emissiveFactor" : [
                0,
                0,
                0
            ],
            "name" : "Material.015",
            "pbrMetallicRoughness" : {
                "baseColorTexture" : {
                    "index" : 2,
                    "texCoord" : 0
                },
                "metallicFactor" : 0,
                "roughnessFactor" : 0.5
            }
        },
        {
            "doubleSided" : true,
            "emissiveFactor" : [
                0,
                0,
                0
            ],
            "name" : "Material",
            "pbrMetallicRoughness" : {
                "baseColorTexture" : {
                    "index" : 3,
                    "texCoord" : 0
                },
                "metallicFactor" : 0,
                "roughnessFactor" : 0.5
            }
        },
        {
            "doubleSided" : true,
            "emissiveFactor" : [
                0,
                0,
                0
            ],
            "name" : "Material.004",
            "pbrMetallicRoughness" : {
                "baseColorTexture" : {
                    "index" : 4,
                    "texCoord" : 0
                },
                "metallicFactor" : 0,
                "roughnessFactor" : 1
            }
        }
    ],
    "meshes" : [
        {
            "name" : "Cilindro",
            "primitives" : [
                {
                    "attributes" : {
                        "POSITION" : 0,
                        "NORMAL" : 1,
                        "TEXCOORD_0" : 2
                    },
                    "indices" : 3,
                    "material" : 0
                }
            ]
        },
        {
            "name" : "Plano",
            "primitives" : [
                {
                    "attributes" : {
                        "POSITION" : 4,
                        "NORMAL" : 5,
                        "TEXCOORD_0" : 6
                    },
                    "indices" : 7,
                    "material" : 1
                }
            ]
        },
        {
            "name" : "Cilindro.005",
            "primitives" : [
                {
                    "attributes" : {
                        "POSITION" : 8,
                        "NORMAL" : 9,
                        "TEXCOORD_0" : 10
                    },
                    "indices" : 11,
                    "material" : 2
                },
                {
                    "attributes" : {
                        "POSITION" : 12,
                        "NORMAL" : 13,
                        "TEXCOORD_0" : 14
                    },
                    "indices" : 15,
                    "material" : 3
                }
            ]
        },
        {
            "name" : "Cilindro.007",
            "primitives" : [
                {
                    "attributes" : {
                        "POSITION" : 16,
                        "NORMAL" : 17,
                        "TEXCOORD_0" : 18
                    },
                    "indices" : 19,
                    "material" : 4
                }
            ]
        },
        {
            "name" : "Cilindro.008",
            "primitives" : [
                {
                    "attributes" : {
                        "POSITION" : 20,
                        "NORMAL" : 21,
                        "TEXCOORD_0" : 22
                    },
                    "indices" : 3,
                    "material" : 0
                }
            ]
        },
        {
            "name" : "Cilindro.009",
            "primitives" : [
                {
                    "attributes" : {
                        "POSITION" : 23,
                        "NORMAL" : 24,
                        "TEXCOORD_0" : 25
                    },
                    "indices" : 19,
                    "material" : 4
                }
            ]
        },
        {
            "name" : "Cilindro.010",
            "primitives" : [
                {
                    "attributes" : {
                        "POSITION" : 26,
                        "NORMAL" : 27,
                        "TEXCOORD_0" : 28
                    },
                    "indices" : 3,
                    "material" : 0
                }
            ]
        },
        {
            "name" : "Cilindro.011",
            "primitives" : [
                {
                    "attributes" : {
                        "POSITION" : 29,
                        "NORMAL" : 30,
                        "TEXCOORD_0" : 31
                    },
                    "indices" : 19,
                    "material" : 4
                }
            ]
        }
    ],
    "textures" : [
        {
            "source" : 0
        },
        {
            "source" : 0
        },
        {
            "sampler" : 0,
            "source" : 1
        },
        {
            "sampler" : 1,
            "source" : 2
        },
        {
            "source" : 0
        }
    ],
    "images" : [
        {
            "bufferView" : 4,
            "mimeType" : "image/jpeg",
            "name" : "piel"
        },
        {
            "bufferView" : 13,
            "mimeType" : "image/jpeg",
            "name" : "tipi"
        },
        {
            "bufferView" : 18,
            "mimeType" : "image/jpeg",
            "name" : "piel_pelaje"
        }
    ],
    "accessors" : [
        {
            "bufferView" : 0,
            "componentType" : 5126,
            "count" : 320,
            "max" : [
                1.3137131929397583,
                1.1089098453521729,
                1
            ],
            "min" : [
                -1.3137880563735962,
                -1,
                -1
            ],
            "type" : "VEC3"
        },
        {
            "bufferView" : 1,
            "componentType" : 5126,
            "count" : 320,
            "type" : "VEC3"
        },
        {
            "bufferView" : 2,
            "componentType" : 5126,
            "count" : 320,
            "type" : "VEC2"
        },
        {
            "bufferView" : 3,
            "componentType" : 5123,
            "count" : 564,
            "type" : "SCALAR"
        },
        {
            "bufferView" : 5,
            "componentType" : 5126,
            "count" : 8,
            "max" : [
                1.2232654094696045,
                -0.38693562150001526,
                0.7674630880355835
            ],
            "min" : [
                0.45361262559890747,
                -0.5712814331054688,
                -0.951789140701294
            ],
            "type" : "VEC3"
        },
        {
            "bufferView" : 6,
            "componentType" : 5126,
            "count" : 8,
            "type" : "VEC3"
        },
        {
            "bufferView" : 7,
            "componentType" : 5126,
            "count" : 8,
            "type" : "VEC2"
        },
        {
            "bufferView" : 8,
            "componentType" : 5123,
            "count" : 12,
            "type" : "SCALAR"
        },
        {
            "bufferView" : 9,
            "componentType" : 5126,
            "count" : 184,
            "max" : [
                1.0117262601852417,
                1.0243898630142212,
                1.011794924736023
            ],
            "min" : [
                -1.0117740631103516,
                -1.0243903398513794,
                -1.0119397640228271
            ],
            "type" : "VEC3"
        },
        {
            "bufferView" : 10,
            "componentType" : 5126,
            "count" : 184,
            "type" : "VEC3"
        },
        {
            "bufferView" : 11,
            "componentType" : 5126,
            "count" : 184,
            "type" : "VEC2"
        },
        {
            "bufferView" : 12,
            "componentType" : 5123,
            "count" : 708,
            "type" : "SCALAR"
        },
        {
            "bufferView" : 14,
            "componentType" : 5126,
            "count" : 62,
            "max" : [
                1.0117262601852417,
                -1,
                1.011794924736023
            ],
            "min" : [
                -1.0117740631103516,
                -1.0243903398513794,
                -1.0119397640228271
            ],
            "type" : "VEC3"
        },
        {
            "bufferView" : 15,
            "componentType" : 5126,
            "count" : 62,
            "type" : "VEC3"
        },
        {
            "bufferView" : 16,
            "componentType" : 5126,
            "count" : 62,
            "type" : "VEC2"
        },
        {
            "bufferView" : 17,
            "componentType" : 5123,
            "count" : 180,
            "type" : "SCALAR"
        },
        {
            "bufferView" : 19,
            "componentType" : 5126,
            "count" : 320,
            "max" : [
                1.044546365737915,
                1.2535170316696167,
                1
            ],
            "min" : [
                -1.0445561408996582,
                -1,
                -1
            ],
            "type" : "VEC3"
        },
        {
            "bufferView" : 20,
            "componentType" : 5126,
            "count" : 320,
            "type" : "VEC3"
        },
        {
            "bufferView" : 21,
            "componentType" : 5126,
            "count" : 320,
            "type" : "VEC2"
        },
        {
            "bufferView" : 22,
            "componentType" : 5123,
            "count" : 564,
            "type" : "SCALAR"
        },
        {
            "bufferView" : 23,
            "componentType" : 5126,
            "count" : 320,
            "max" : [
                1.3137131929397583,
                1.1089098453521729,
                1
            ],
            "min" : [
                -1.3137880563735962,
                -1,
                -1
            ],
            "type" : "VEC3"
        },
        {
            "bufferView" : 24,
            "componentType" : 5126,
            "count" : 320,
            "type" : "VEC3"
        },
        {
            "bufferView" : 25,
            "componentType" : 5126,
            "count" : 320,
            "type" : "VEC2"
        },
        {
            "bufferView" : 26,
            "componentType" : 5126,
            "count" : 320,
            "max" : [
                1.044546365737915,
                1.2535170316696167,
                1
            ],
            "min" : [
                -1.0445561408996582,
                -1,
                -1
            ],
            "type" : "VEC3"
        },
        {
            "bufferView" : 27,
            "componentType" : 5126,
            "count" : 320,
            "type" : "VEC3"
        },
        {
            "bufferView" : 28,
            "componentType" : 5126,
            "count" : 320,
            "type" : "VEC2"
        },
        {
            "bufferView" : 29,
            "componentType" : 5126,
            "count" : 320,
            "max" : [
                1.3137131929397583,
                1.1089098453521729,
                1
            ],
            "min" : [
                -1.3137880563735962,
                -1,
                -1
            ],
            "type" : "VEC3"
        },
        {
            "bufferView" : 30,
            "componentType" : 5126,
            "count" : 320,
            "type" : "VEC3"
        },
        {
            "bufferView" : 31,
            "componentType" : 5126,
            "count" : 320,
            "type" : "VEC2"
        },
        {
            "bufferView" : 32,
            "componentType" : 5126,
            "count" : 320,
            "max" : [
                1.044546365737915,
                1.2535170316696167,
                1
            ],
            "min" : [
                -1.0445561408996582,
                -1,
                -1
            ],
            "type" : "VEC3"
        },
        {
            "bufferView" : 33,
            "componentType" : 5126,
            "count" : 320,
            "type" : "VEC3"
        },
        {
            "bufferView" : 34,
            "componentType" : 5126,
            "count" : 320,
            "type" : "VEC2"
        }
    ],
    "bufferViews" : [
        {
            "buffer" : 0,
            "byteLength" : 3840,
            "byteOffset" : 0
        },
        {
            "buffer" : 0,
            "byteLength" : 3840,
            "byteOffset" : 3840
        },
        {
            "buffer" : 0,
            "byteLength" : 2560,
            "byteOffset" : 7680
        },
        {
            "buffer" : 0,
            "byteLength" : 1128,
            "byteOffset" : 10240
        },
        {
            "buffer" : 0,
            "byteLength" : 25516,
            "byteOffset" : 11368
        },
        {
            "buffer" : 0,
            "byteLength" : 96,
            "byteOffset" : 36884
        },
        {
            "buffer" : 0,
            "byteLength" : 96,
            "byteOffset" : 36980
        },
        {
            "buffer" : 0,
            "byteLength" : 64,
            "byteOffset" : 37076
        },
        {
            "buffer" : 0,
            "byteLength" : 24,
            "byteOffset" : 37140
        },
        {
            "buffer" : 0,
            "byteLength" : 2208,
            "byteOffset" : 37164
        },
        {
            "buffer" : 0,
            "byteLength" : 2208,
            "byteOffset" : 39372
        },
        {
            "buffer" : 0,
            "byteLength" : 1472,
            "byteOffset" : 41580
        },
        {
            "buffer" : 0,
            "byteLength" : 1416,
            "byteOffset" : 43052
        },
        {
            "buffer" : 0,
            "byteLength" : 106630,
            "byteOffset" : 44468
        },
        {
            "buffer" : 0,
            "byteLength" : 744,
            "byteOffset" : 151100
        },
        {
            "buffer" : 0,
            "byteLength" : 744,
            "byteOffset" : 151844
        },
        {
            "buffer" : 0,
            "byteLength" : 496,
            "byteOffset" : 152588
        },
        {
            "buffer" : 0,
            "byteLength" : 360,
            "byteOffset" : 153084
        },
        {
            "buffer" : 0,
            "byteLength" : 18137,
            "byteOffset" : 153444
        },
        {
            "buffer" : 0,
            "byteLength" : 3840,
            "byteOffset" : 171584
        },
        {
            "buffer" : 0,
            "byteLength" : 3840,
            "byteOffset" : 175424
        },
        {
            "buffer" : 0,
            "byteLength" : 2560,
            "byteOffset" : 179264
        },
        {
            "buffer" : 0,
            "byteLength" : 1128,
            "byteOffset" : 181824
        },
        {
            "buffer" : 0,
            "byteLength" : 3840,
            "byteOffset" : 182952
        },
        {
            "buffer" : 0,
            "byteLength" : 3840,
            "byteOffset" : 186792
        },
        {
            "buffer" : 0,
            "byteLength" : 2560,
            "byteOffset" : 190632
        },
        {
            "buffer" : 0,
            "byteLength" : 3840,
            "byteOffset" : 193192
        },
        {
            "buffer" : 0,
            "byteLength" : 3840,
            "byteOffset" : 197032
        },
        {
            "buffer" : 0,
            "byteLength" : 2560,
            "byteOffset" : 200872
        },
        {
            "buffer" : 0,
            "byteLength" : 3840,
            "byteOffset" : 203432
        },
        {
            "buffer" : 0,
            "byteLength" : 3840,
            "byteOffset" : 207272
        },
        {
            "buffer" : 0,
            "byteLength" : 2560,
            "byteOffset" : 211112
        },
        {
            "buffer" : 0,
            "byteLength" : 3840,
            "byteOffset" : 213672
        },
        {
            "buffer" : 0,
            "byteLength" : 3840,
            "byteOffset" : 217512
        },
        {
            "buffer" : 0,
            "byteLength" : 2560,
            "byteOffset" : 221352
        }
    ],
    "samplers" : [
        {
            "magFilter" : 9728,
            "minFilter" : 9984
        },
        {
            "magFilter" : 9728,
            "minFilter" : 9984,
            "wrapS" : 33071,
            "wrapT" : 33071
        }
    ],
    "buffers" : [
        {
            "byteLength" : 223912,
            "uri" : "data:application/octet-stream;base64,"
        }
    ]
}
